<?xml version="1.0" encoding="UTF-8" standalone="no"?>
<svg
   xmlns:dc="http://purl.org/dc/elements/1.1/"
   xmlns:cc="http://creativecommons.org/ns#"
   xmlns:rdf="http://www.w3.org/1999/02/22-rdf-syntax-ns#"
   xmlns:svg="http://www.w3.org/2000/svg"
   xmlns="http://www.w3.org/2000/svg"
   xmlns:sodipodi="http://sodipodi.sourceforge.net/DTD/sodipodi-0.dtd"
   xmlns:inkscape="http://www.inkscape.org/namespaces/inkscape"
   id="Layer_1"
   data-name="Layer 1"
   width="98.427"
   height="88.293"
   viewBox="0 0 98.427 88.293"
   version="1.1"
   sodipodi:docname="hexagon-white.svg"
   inkscape:version="0.92.4 (5da689c313, 2019-01-14)">
  <metadata
     id="metadata13">
    <rdf:RDF>
      <cc:Work
         rdf:about="">
        <dc:format>image/svg+xml</dc:format>
        <dc:type
           rdf:resource="http://purl.org/dc/dcmitype/StillImage" />
      </cc:Work>
    </rdf:RDF>
  </metadata>
  <sodipodi:namedview
     pagecolor="#ffffff"
     bordercolor="#666666"
     borderopacity="1"
     objecttolerance="10"
     gridtolerance="10"
     guidetolerance="10"
     inkscape:pageopacity="0"
     inkscape:pageshadow="2"
     inkscape:window-width="1920"
     inkscape:window-height="1029"
     id="namedview11"
     showgrid="false"
     inkscape:zoom="2.6729186"
     inkscape:cx="-35.525331"
     inkscape:cy="44.1465"
     inkscape:window-x="0"
     inkscape:window-y="0"
     inkscape:window-maximized="1"
     inkscape:current-layer="g834" />
  <defs
     id="defs4">
    <style
       id="style2">.cls-1{fill:#fff;}</style>
  </defs>
  <title
     id="title6">hexagon-white</title>
  <g
     id="g834"
     transform="translate(0.18421988,0.37062697)">
    <path
       inkscape:connector-curvature="0"
       style="fill:#c20000;fill-opacity:1"
       id="path6"
       d="M 1.2,49.3 C -0.4,46 -0.4,42.2 1.2,38.9 L 20.7,5.2 c 2,-3.1 5.3,-5 9,-5.2 h 39 c 3.7,0.2 7,2.1 9,5.2 L 97.2,39 c 1.6,3.3 1.6,7.1 0,10.4 L 77.7,83.1 c -2,3.1 -5.3,5 -9,5.2 h -39 c -3.7,-0.2 -7,-2.1 -9,-5.2 z"
       class="st0" />
    <path
       id="path2"
       d="M 72.084454,21.05154 V 16.5592 l 3.058432,-2.54543 H 42.04551 L 22.059714,32.53489 h 13.254428 c -0.02404,0.35054 -0.03391,0.66752 -0.03391,1.027 0,3.43864 1.117099,6.28293 3.353531,8.55519 2.236436,2.27602 4.99056,3.40616 8.251749,3.40616 0.761815,0 1.508807,-0.0607 2.234203,-0.16896 -0.449864,1.0724 -0.676921,2.06586 -0.676921,2.99283 0,1.62906 0.696213,3.37028 2.083908,5.21976 -6.071037,0.44054 -10.531784,1.60554 -13.375273,3.49117 -1.62958,1.07212 -2.940093,2.42563 -3.928905,4.04676 -0.988876,1.63304 -1.482062,3.38427 -1.482062,5.27252 0,1.59161 0.319133,3.0248 0.96234,4.29934 0.643207,1.27457 1.482063,2.32113 2.524155,3.1317 1.039581,0.81951 2.238932,1.50132 3.592909,2.0569 1.351546,0.5516 2.693473,0.94336 4.032691,1.16507 1.334954,0.22142 2.662259,0.32968 3.977717,0.32968 2.084174,0 4.170791,-0.2861 6.274263,-0.85569 2.098531,-0.57483 4.066604,-1.42552 5.906592,-2.55574 1.835117,-1.12255 3.329303,-2.65369 4.475378,-4.57252 1.143565,-1.92678 1.716775,-4.09193 1.716775,-6.48905 0,-1.81722 -0.34811,-3.4706 -1.044527,-4.97214 -0.691478,-1.49656 -1.537784,-2.72867 -2.545894,-3.68597 -1.005934,-0.95887 -2.011601,-1.84023 -3.019772,-2.63413 -1.005938,-0.79923 -1.856913,-1.60849 -2.548389,-2.4436 -0.693979,-0.8325 -1.042088,-1.65857 -1.042088,-2.47181 0,-0.81186 0.268353,-1.59551 0.807105,-2.35331 0.534552,-0.7604 1.187439,-1.49259 1.951222,-2.19497 0.764038,-0.701 1.528094,-1.47938 2.289635,-2.33144 0.761549,-0.8491 1.414436,-1.95109 1.951228,-3.30063 0.539218,-1.34926 0.805141,-2.87779 0.805141,-4.57888 0,-2.21922 -0.394146,-4.03514 -1.167878,-5.49553 -0.09187,-0.16867 -0.188408,-0.29749 -0.290155,-0.49856 l 8.805864,-7.69924 v 2.82395 c -1.144107,0.15336 -1.025032,0.88187 -1.025032,1.75443 v 21.22547 c 0,0.98291 0.754373,1.78719 1.676432,1.78719 h 0.617211 c 0.921995,0 1.676432,-0.8042 1.676432,-1.78719 V 22.80518 c 0,-0.87047 0.120297,-1.59818 -1.015353,-1.75364 z M 55.471551,57.75256 c 0.176557,0.12377 0.573142,0.45872 1.194346,0.99611 0.62662,0.53501 1.051768,0.93961 1.279031,1.2231 0.222595,0.27447 0.553845,0.68708 0.986648,1.24504 0.435235,0.55666 0.730126,1.03992 0.884887,1.44084 0.154764,0.40857 0.311961,0.90085 0.471394,1.47569 0.152522,0.56828 0.229767,1.15079 0.229767,1.7423 0,2.81233 -1.015618,4.89615 -3.041576,6.24541 -2.030963,1.34954 -4.451334,2.02471 -7.263139,2.02471 -1.421613,0 -2.816752,-0.18028 -4.18765,-0.52707 -1.368401,-0.34918 -2.678848,-0.88028 -3.928905,-1.58397 -1.250061,-0.70236 -2.255729,-1.68318 -3.017542,-2.93579 -0.764052,-1.26035 -1.146076,-2.70783 -1.146076,-4.33025 0,-1.70246 0.432797,-3.18214 1.303273,-4.4385 0.865528,-1.25796 2.001987,-2.20919 3.409244,-2.85642 1.402317,-0.65093 2.823923,-1.11225 4.264894,-1.38542 1.440973,-0.28082 2.908617,-0.42148 4.400564,-0.42148 0.691474,0 1.22799,0.0414 1.610016,0.11482 0.07034,0.0361 0.469154,0.34152 1.196847,0.91775 0.727899,0.57116 1.179994,0.923 1.354048,1.05313 z M 54.951899,41.16081 c -1.146079,1.46147 -2.744245,2.19207 -4.789769,2.19207 -1.835113,0 -3.450341,-0.78602 -4.838032,-2.36096 -1.392636,-1.57097 -2.386454,-3.35339 -2.993303,-5.34989 -0.609293,-1.99749 -0.913872,-3.95653 -0.913872,-5.88064 0,-2.25905 0.556356,-4.18214 1.668238,-5.76978 1.112159,-1.59183 2.70782,-2.38947 4.787327,-2.38947 1.837549,0 3.46219,0.83113 4.86457,2.50033 1.40726,1.66363 2.415433,3.53238 3.020047,5.6035 0.606854,2.06852 0.908859,4.04654 0.908859,5.93606 0,2.21821 -0.572936,4.05975 -1.713999,5.51878 z"
       style="fill:#ffffff;fill-opacity:1;stroke-width:0.01035106"
       inkscape:connector-curvature="0" />
  </g>
</svg>
